<?xml version="1.0" encoding="utf-8"?>
<!-- Generator: Adobe Illustrator 16.0.0, SVG Export Plug-In . SVG Version: 6.00 Build 0)  -->
<!DOCTYPE svg PUBLIC "-//W3C//DTD SVG 1.1//EN" "http://www.w3.org/Graphics/SVG/1.1/DTD/svg11.dtd">
<svg version="1.1" xmlns="http://www.w3.org/2000/svg" xmlns:xlink="http://www.w3.org/1999/xlink" x="0px" y="0px"
	 width="194.427px" height="119.227px" viewBox="0 0 194.427 119.227" enable-background="new 0 0 194.427 119.227"
	 xml:space="preserve">
<g id="Layer_1">
	<g>
		<defs>
			<rect id="SVGID_831_" x="-1199.713" y="2430.529" width="1024" height="768"/>
		</defs>
		<clipPath id="SVGID_2_">
			<use xlink:href="#SVGID_831_"  overflow="visible"/>
		</clipPath>
		<g clip-path="url(#SVGID_2_)">
			<g>
				<g>
					<polygon fill="#8DBF43" points="1734.017,3295.138 -2768.434,3292.617 -2766.543,-104.77 1735.907,-102.253 					"/>
					<g>
						<path opacity="0.5" fill="#78A735" d="M158.978,5.312c0.03-3.921,5.245-7.049,5.245-7.049s5.163,3.22,5.129,7.14
							c-0.034,3.927-2.379,7.084-5.253,7.053C161.236,12.433,158.948,9.244,158.978,5.312z"/>
						<path opacity="0.5" fill="#78A735" d="M176.268,2.396c-6.023,0.164-11.04-5.033-11.04-5.033s4.742-5.456,10.765-5.619
							c6.022-0.155,10.946,2.104,11.04,5.042C187.101-0.271,182.281,2.241,176.268,2.396z"/>
						<path opacity="0.5" fill="#78A735" d="M162.41-9.493c3.99,3.102,3.947,9.818,3.947,9.818s-6.499,1.693-10.49-1.408
							c-3.981-3.098-5.743-7.496-3.939-9.811C153.732-13.219,158.433-12.591,162.41-9.493z"/>
						<path opacity="0.5" fill="#78A735" d="M9.716,101.464c-2.054,3.339-8.145,3.308-8.145,3.308s-2.749-5.421-0.68-8.763
							c2.059-3.339,5.714-4.828,8.146-3.316C11.473,94.2,11.778,98.121,9.716,101.464z"/>
						<path opacity="0.5" fill="#78A735" d="M-6.583,94.99c5.232,2.985,6.827,10.031,6.827,10.031s-6.878,2.215-12.105-0.77
							c-5.237-2.985-8.286-7.479-6.825-10.031C-17.222,91.656-11.806,92.008-6.583,94.99z"/>
						<path opacity="0.5" fill="#78A735" d="M-0.895,112.345c-1.796-4.717,1.718-10.442,1.718-10.442s6.443,1.92,8.234,6.633
							c1.801,4.721,1.036,9.39-1.709,10.442S0.91,117.053-0.895,112.345z"/>
						<path opacity="0.5" fill="#78A735" d="M89.989,75.534c2.642,6.668-4.051,15.556-4.051,15.556s-10.963-1.911-13.588-8.584
							c-2.646-6.661-0.828-13.628,4.047-15.554C81.269,65.032,87.348,68.873,89.989,75.534z"/>
						<path opacity="0.5" fill="#78A735" d="M78.772,101.502c-0.815-5.549,3.746-10.812,3.746-10.812s5.902,3.73,6.719,9.271
							c0.816,5.551-0.877,10.396-3.755,10.82C82.588,111.203,79.58,107.053,78.772,101.502z"/>
						<path opacity="0.5" fill="#78A735" d="M68.927,87.71c6.668-2.627,14.85,2.28,14.85,2.28s-2.628,9.171-9.299,11.799
							c-6.668,2.631-13.317,1.6-14.859-2.285C58.09,95.616,62.252,90.329,68.927,87.71z"/>
						<path opacity="0.5" fill="#78A735" d="M89.916,101.391c-6.263-3.471-7.681-12.904-7.681-12.904s8.746-3.81,15.018-0.335
							c6.271,3.467,9.717,9.244,7.693,12.898C102.923,104.707,96.196,104.862,89.916,101.391z"/>
					</g>
				</g>
			</g>
		</g>
	</g>
</g>
<g id="Layer_10" display="none">
</g>
<g id="Layer_1_copy" display="none">
</g>
<g id="car" display="none">
</g>
<g id="Layer_4" display="none">
</g>
<g id="Layer_6" display="none">
	<g display="inline">
		<defs>
			<rect id="SVGID_2246_" x="1658.287" y="844.529" width="1024" height="768"/>
		</defs>
		<clipPath id="SVGID_3_">
			<use xlink:href="#SVGID_2246_"  overflow="visible"/>
		</clipPath>
		<g clip-path="url(#SVGID_3_)">
			<g>
				<g>
					<polygon fill="#8DBF43" points="-677.375,-1490.772 3825.075,-1488.252 3823.185,1909.135 -679.266,1906.618 					"/>
					<g>
						<path opacity="0.5" fill="#78A735" d="M119.782,21.343c2.053-3.337,8.145-3.314,8.145-3.314s2.74,5.424,0.687,8.761
							c-2.069,3.339-5.713,4.829-8.145,3.325C118.029,28.607,117.725,24.681,119.782,21.343z"/>
						<path opacity="0.5" fill="#78A735" d="M136.088,27.81c-5.231-2.987-6.829-10.031-6.829-10.031s6.873-2.213,12.108,0.775
							c5.232,2.987,8.283,7.477,6.826,10.031C146.729,31.146,141.312,30.794,136.088,27.81z"/>
						<path opacity="0.5" fill="#78A735" d="M130.393,10.457c1.813,4.717-1.715,10.442-1.715,10.442s-6.43-1.918-8.238-6.631
							c-1.805-4.721-1.027-9.396,1.714-10.447C124.902,2.769,128.588,5.745,130.393,10.457z"/>
						<path opacity="0.5" fill="#78A735" d="M39.509,47.271c-2.634-6.675,4.059-15.562,4.059-15.562s10.955,1.916,13.585,8.582
							c2.637,6.666,0.824,13.63-4.056,15.562C48.238,57.77,42.159,53.931,39.509,47.271z"/>
						<path opacity="0.5" fill="#78A735" d="M50.729,21.3c0.812,5.547-3.755,10.808-3.755,10.808s-5.898-3.731-6.71-9.271
							c-0.816-5.543,0.872-10.391,3.759-10.816C46.92,11.601,49.917,15.749,50.729,21.3z"/>
						<path opacity="0.5" fill="#78A735" d="M60.579,35.095c-6.671,2.623-14.854-2.285-14.854-2.285s2.629-9.174,9.296-11.802
							c6.681-2.619,13.325-1.597,14.854,2.286C71.413,27.185,67.246,32.468,60.579,35.095z"/>
						<path opacity="0.5" fill="#78A735" d="M39.578,21.413c6.271,3.465,7.693,12.902,7.693,12.902s-8.75,3.811-15.018,0.336
							c-6.272-3.462-9.718-9.245-7.706-12.9C26.574,18.097,33.307,17.941,39.578,21.413z"/>
					</g>
				</g>
				<polygon fill="#BCB17C" points="617.369,-1289.471 2820.636,-1289.471 3719.287,-456.541 3719.287,709.3 2647.87,1499.529 
					130.753,1499.529 -587.713,817.435 -587.713,-67.929 				"/>
				<g>
					<g opacity="0.55">
						<path fill="#1D1E1C" d="M106.387,180.736c10.992,9.301,16.259,9.876,29.636,3.279l7.156-0.963
							c5.86-6.779,8.309-11.75,11.418-23.461c3.076-11.186,6.131-23.84,3.295-29.635c-0.253-0.46-6.774-5.936-16.293-12.385
							c-9.94-6.155-14.829-10.068-16.264-12.4l-27.69,11.077c-2.947,1.413-11.478,28.547-10.456,30.595
							C95.286,163.34,99.629,174.92,106.387,180.736z"/>
					</g>
					<g>
						<path fill="#B19472" d="M106.187,180.536c10.992,9.301,16.259,9.876,29.636,3.279l7.156-0.963
							c5.86-6.779,8.309-11.75,11.418-23.461c3.076-11.186,6.131-23.84,3.295-29.635c-0.253-0.46-6.774-5.936-16.293-12.385
							c-9.94-6.155-14.829-10.068-16.264-12.4l-27.69,11.077c-2.947,1.413-11.478,28.547-10.456,30.595
							C95.086,163.14,99.429,174.72,106.187,180.536z"/>
					</g>
				</g>
				<path fill="#4D4E53" d="M-516.764,128.292c0.193,22.377,4.617,44.215,13.157,64.912c8.823,21.375,21.634,40.557,38.077,57.003
					c16.633,16.629,36.041,29.538,57.699,38.361c20.968,8.549,43.068,12.878,65.69,12.878c22.268,0,43.97-4.201,64.512-12.49
					c21.16-8.541,40.122-21.027,56.368-37.129c0,0,8.38,7.822,7.396,8.84l-252.065,250.968c-0.391,0.383-0.769,0.772-1.147,1.168
					c-15.438,15.993-27.548,34.493-36.001,54.994c-8.759,21.259-13.206,43.755-13.206,66.853c0,23.928,4.756,47.162,14.137,69.062
					c8.979,20.958,21.768,39.727,38.026,55.779l546.599,546.448c1.521,1.524,3.105,2.997,4.742,4.402
					c32.545,27.901,69.311,49.63,109.273,64.708c41.385,15.602,84.96,23.479,129.498,23.479H2456.62
					c39.42,0,77.704-7.696,113.789-22.964c34.811-14.727,66.06-35.782,92.873-62.601c26.813-26.811,47.876-58.044,62.6-92.853
					c15.262-36.086,23.003-74.36,23.003-113.776c0-39.42-7.741-77.702-23.003-113.786c-14.724-34.812-35.786-66.059-62.618-92.889
					L1662.306-100.673c-19.461-19.461-30.178-45.332-30.178-72.85c0-27.522,10.717-53.399,30.178-72.858
					c19.458-19.461,45.33-30.172,72.852-30.172c27.979,0,54.156,11.022,73.714,31.045c0.249,0.252,0.5,0.511,0.757,0.763
					l337.676,336.984c35.506,38.982,85.859,61.277,138.66,61.277c25.354,0,49.99-5,73.224-14.859
					c22.319-9.471,42.341-22.998,59.509-40.199l179.792-179.584c18.171-17.613,42.103-27.312,67.432-27.312
					c25.884,0,50.222,10.078,68.522,28.386c18.305,18.301,28.385,42.64,28.385,68.521c0,25.762-9.995,50.008-28.142,68.279
					c-0.011,0.01-52.947,53.37-52.947,53.37c-14.274,13.755-25.557,29.912-33.547,48.038c-8.526,19.348-12.852,39.912-12.852,61.133
					c0,20.7,4.124,40.809,12.255,59.76c7.768,18.103,18.819,34.302,32.859,48.156l410.401,410.359
					c26.584,26.846,57.63,47.945,92.276,62.727c36.01,15.356,74.236,23.146,113.62,23.146c39.084,0,77.037-7.678,112.82-22.808
					c34.516-14.604,65.487-35.48,92.075-62.071c26.584-26.587,45.862-57.567,60.462-92.088
					c15.135-35.776,21.178-73.739,21.178-112.824v-771.534c0-65.735-23.27-128.212-68.479-175.915
					c-0.502-0.533-0.174-1.058-0.689-1.578c0,0-575.031-576.401-575.111-576.479c-29.404-29.22-61.536-55.735-95.896-78.831
					c-34.712-23.327-71.714-43.358-110.166-59.55c-39.186-16.495-80.128-28.406-121.796-36.893
					c-42.703-8.705-86.58-12.337-130.503-12.337H989.166c-43.922,0-87.846,3.632-130.545,12.337
					c-41.668,8.486-82.666,20.755-121.852,37.251c-38.455,16.193-75.552,36.046-110.266,59.376
					c-34.356,23.089-66.686,49.516-96.09,78.732c-0.069,0.07-997.009,997.2-997.009,997.2
					c-16.556,16.557-29.331,35.92-37.965,57.605C-512.851,83.834-516.957,105.778-516.764,128.292z M-274.269,52.006L649.59-872.092
					c21.783-21.638,45.727-41.276,71.166-58.37c25.696-17.268,53.141-31.803,81.578-43.777
					c59.156-24.898,122.011-37.231,186.832-37.231h1491.481c64.824,0,127.686,12.333,186.832,37.231
					c28.439,11.975,55.889,26.651,81.584,43.921c25.425,17.088,49.361,36.645,71.138,58.27l573.576,575.166
					c14.941,16.096,22.51,36.987,22.51,58.994v771.534c0,32.277-11.92,62.618-34.74,85.441
					c-22.822,22.816-52.842,35.388-85.109,35.388c-32.545,0-62.902-12.75-85.781-35.896c-0.119-0.119-0.153-0.239-0.274-0.356
					L2811.42,219.263l43.165-43.49l-0.019,0.033c24.193-24.365,43.197-52.711,56.476-84.264
					c13.763-32.701,20.744-67.381,20.744-103.074c0-35.856-7.038-70.68-20.924-103.512c-13.396-31.669-32.556-60.094-56.943-84.483
					c-24.392-24.392-52.817-43.545-84.484-56.943c-32.833-13.89-67.66-20.929-103.515-20.929c-35.304,0-69.635,6.834-102.046,20.314
					c-31.259,12.997-59.431,31.623-83.727,55.358c-0.223,0.219-0.446,0.442-0.668,0.661c0,0-180.305,180.093-180.362,180.152
					c-2.481,2.491-6.781,5.467-13.153,5.467c-7.294,0-11.871-3.96-13.951-6.322c-1.197-1.356-2.437-2.68-3.719-3.956
					L1929.31-364.009c-24.944-25.421-54.128-45.428-86.754-59.457c-34.018-14.631-70.153-22.053-107.398-22.053
					c-36.681,0-72.311,7.203-105.896,21.414c-32.398,13.703-61.477,33.299-86.434,58.252
					c-24.949,24.949-44.555,54.031-58.249,86.431c-14.211,33.587-21.414,69.216-21.414,105.897c0,36.68,7.203,72.312,21.414,105.896
					c13.694,32.4,33.3,61.479,58.257,86.428l1000.992,1000.377c23.269,23.269,36.095,54.229,36.095,87.168
					c0,32.934-12.826,64.842-36.115,88.133c-23.286,23.283-54.249,37.052-87.187,37.052H325.992
					c-24.099,0-47.613-5.196-69.874-13.599c-20.61-7.766-39.661-19.351-56.673-33.509l-544.292-544.376
					c-0.176-0.172-0.348-0.465-0.523-0.637c-1.951-1.916-1.951-4.022-1.951-4.702c0-0.617,0-2.471,1.573-4.275
					c0,0,325.256-324.173,325.293-324.208c16.548-16.553,29.323-35.945,37.966-57.632c8.282-20.808,12.394-42.774,12.199-65.292
					c-0.188-22.372-4.614-44.213-13.157-64.908C7.733,97.011-5.08,77.831-21.523,61.387c-16.629-16.633-36.046-29.536-57.7-38.363
					c-20.967-8.544-43.069-12.878-65.694-12.878c-22.265,0-43.971,4.201-64.512,12.486c-21.16,8.54-40.117,21.031-56.364,37.131
					C-265.794,59.763-275.274,53.011-274.269,52.006z"/>
				
					<path fill="none" stroke="#FFFFFF" stroke-width="5" stroke-linecap="square" stroke-linejoin="round" stroke-miterlimit="10" stroke-dasharray="20,40" d="
					M2603.545,959.421c37.603,37.6,60.856,89.547,60.856,146.924c0,114.755-93.027,207.78-207.781,207.78H325.992
					c-70.179,0-134.382-25.584-183.786-67.938l-546.784-546.629c-16.805-16.51-27.227-39.49-27.227-64.908
					c0-24.541,9.713-46.814,25.513-63.18l326.093-325c34.323-34.32,33.85-90.44-1.061-125.346
					c-34.911-34.912-91.029-35.39-125.352-1.066l-73.83,71.477c-34.322,34.32-90.441,33.846-125.352-1.066
					c-34.908-34.905-35.388-91.029-1.066-125.352l996.82-997.052c102.393-101.742,243.461-164.61,399.205-164.61h1491.481
					c155.751,0,296.816,62.868,399.21,164.61l575.264,576.238c29.097,30.706,46.943,72.176,46.943,117.809v771.534
					c0,113.389-91.919,205.308-205.309,205.308c-57.129,0-108.807-23.334-146.023-60.991l-410.764-410.717
					c-12.434-12.188-20.146-29.173-20.146-47.957c0-19.254,8.102-36.612,21.085-48.86l53.725-54.151
					c32.559-32.787,52.676-77.947,52.676-127.809c0-100.174-81.207-181.385-181.388-181.385c-49.318,0-94.041,19.684-126.739,51.627
					L2358.991,38.685c-18.656,18.746-44.488,30.348-73.027,30.348c-30.811,0-58.465-13.521-77.346-34.957L1869.306-304.54
					c-34.046-34.858-81.572-56.496-134.148-56.496c-103.56,0-187.51,83.95-187.51,187.512c0,51.779,20.987,98.658,54.922,132.59
					L2603.545,959.421z"/>
				<path fill="none" stroke="#F1911A" stroke-width="5" stroke-miterlimit="10" d="M1283.287-1179.971H989.166
					c-43.922,0-87.846,3.882-130.545,12.587c-41.668,8.486-82.666,20.88-121.852,37.376
					c-38.455,16.193-75.552,36.104-110.266,59.435c-34.356,23.093-66.686,49.555-96.09,78.768
					C530.345-991.735-466.595,5.41-466.595,5.41c-16.556,16.557-29.331,35.928-37.965,57.613
					c-8.291,20.803-12.397,42.765-12.204,65.282c0.193,22.373,4.617,44.206,13.157,64.903c8.823,21.375,21.634,40.554,38.077,57.001
					c16.633,16.629,36.041,29.539,57.699,38.357c20.968,8.549,43.068,12.879,65.69,12.879c22.268,0,43.97-4.201,64.512-12.49
					c21.16-8.541,40.122-21.027,56.368-37.129c0,0,9.123,7.084,8.136,8.098l-252.805,251.71c-0.391,0.383-0.769,0.772-1.147,1.168
					c-15.438,15.993-27.548,34.493-36.001,54.994c-8.759,21.259-13.206,43.755-13.206,66.853c0,23.928,4.756,47.162,14.137,69.062
					c8.979,20.958,21.768,39.727,38.026,55.779l309.415,310.996"/>
				<path fill="none" stroke="#F1911A" stroke-width="5" stroke-miterlimit="10" d="M-33.078,952.608l-312.248-312.726
					c-0.171-0.182-0.102-0.38-0.279-0.558c-1.955-1.911-1.834-3.988-1.834-4.661c0-0.619,0.055-2.452,1.631-4.249
					c0,0,325.289-324.166,325.322-324.201c16.555-16.557,29.342-35.947,37.979-57.633c8.285-20.799,12.401-42.766,12.213-65.283
					c-0.189-22.372-4.614-44.213-13.154-64.908C7.728,97.009-5.08,77.831-21.523,61.386c-16.629-16.633-36.046-29.535-57.7-38.362
					c-20.967-8.544-43.069-12.878-65.694-12.878c-22.265,0-43.971,4.201-64.512,12.486c-21.16,8.54-40.117,21.031-56.364,37.131
					c0,0-7.083-9.148-6.077-10.15L649.59-872.092c21.783-21.638,45.727-41.276,71.166-58.37
					c25.696-17.268,53.141-32.053,81.578-44.027c59.156-24.898,122.011-37.481,186.832-37.481h294.121"/>
				<g>
				</g>
			</g>
			<g>
				
					<rect x="-52.85" y="-108.124" transform="matrix(-0.7066 0.7076 -0.7076 -0.7066 -6.6621 -131.9622)" fill="#F1911A" width="153.754" height="81.523"/>
				<g>
					<g opacity="0.55">
						<path fill="#1D1D1B" d="M-62.291-47.015c-2.586,2.59-2.582,6.822,0.008,9.409L-4.635,19.96
							c2.595,2.581,6.821,2.581,9.408-0.005L17.295,7.413l1.882,7.336l-6.01,6.018l6.151,3.219l11.207-11.225L27.3,6.614
							l-4.756,4.759l-1.877-7.337l36.509-36.562l4.609,4.603L55.6-21.72l6.143,3.217l12.672-12.695l-3.221-6.142l-6.195,6.194
							l-4.609-4.602l36.509-36.561l7.343,1.87l-4.756,4.759l6.151,3.217l11.202-11.224l-3.221-6.148l-6.006,6.024l-7.346-1.865
							l12.518-12.549c2.591-2.584,2.586-6.816,0-9.402l-57.656-57.566c-2.586-2.584-6.821-2.58-9.403,0.004l-10.605,10.624
							l-4.562-4.558l15.301-15.328l-2.999-2.997l-52.743,52.819l-46.551-46.492l-11.998,11.895l46.617,46.549l-52.734,52.818
							l2.998,2.994l15.305-15.33l4.566,4.558L-62.291-47.015z M-6.877-111.633l34.976-35.031l4.566,4.554l-34.979,35.035
							L-6.877-111.633z M-53.794-64.647l34.979-35.036l4.566,4.558l-34.984,35.031L-53.794-64.647L-53.794-64.647z M47.377-141.509
							c1.68-1.69,4.434-1.693,6.127-0.01L99.11-95.976c1.688,1.684,1.688,4.436,0,6.127L3.123,6.278
							C1.439,7.966-1.309,7.97-3.002,6.286l-45.603-45.542c-1.692-1.688-1.692-4.442-0.005-6.131L47.377-141.509z"/>
					</g>
					<g>
						
							<linearGradient id="SVGID_4_" gradientUnits="userSpaceOnUse" x1="6156.707" y1="2535.2334" x2="5977.3813" y2="2330.6511" gradientTransform="matrix(-1 0 0 -1 6054.6406 2324.3691)">
							<stop  offset="0" style="stop-color:#4D4D4D"/>
							<stop  offset="1" style="stop-color:#1A1A1A"/>
						</linearGradient>
						<path fill="url(#SVGID_4_)" d="M-63.291-47.015c-2.586,2.59-2.582,6.822,0.008,9.409L-5.635,19.96
							c2.595,2.581,6.821,2.581,9.408-0.005L16.295,7.413l1.882,7.336l-6.01,6.018l6.151,3.219l11.207-11.225L26.3,6.614
							l-4.756,4.759l-1.877-7.337l36.509-36.562l4.609,4.603L54.6-21.72l6.143,3.217l12.672-12.695l-3.221-6.142l-6.195,6.194
							l-4.609-4.602l36.509-36.561l7.343,1.87l-4.756,4.759l6.151,3.217l11.202-11.224l-3.221-6.148l-6.006,6.024l-7.346-1.865
							l12.518-12.549c2.591-2.584,2.586-6.816,0-9.402l-57.656-57.566c-2.586-2.584-6.821-2.58-9.403,0.004l-10.605,10.624
							l-4.562-4.558l15.301-15.328l-2.999-2.997l-52.743,52.819l-46.551-46.492l-11.998,11.895l46.617,46.549l-52.734,52.818
							l2.998,2.994l15.305-15.33l4.566,4.558L-63.291-47.015z M-7.877-111.633l34.976-35.031l4.566,4.554l-34.979,35.035
							L-7.877-111.633z M-54.794-64.647l34.979-35.036l4.566,4.558l-34.984,35.031L-54.794-64.647L-54.794-64.647z M46.377-141.509
							c1.68-1.69,4.434-1.693,6.127-0.01L98.11-95.976c1.688,1.684,1.688,4.436,0,6.127L2.123,6.278
							C0.439,7.966-2.309,7.97-4.002,6.286l-45.603-45.542c-1.692-1.688-1.692-4.442-0.005-6.131L46.377-141.509z"/>
					</g>
				</g>
				
					<linearGradient id="SVGID_5_" gradientUnits="userSpaceOnUse" x1="2219.4316" y1="1246.1777" x2="2219.4316" y2="1275.8468" gradientTransform="matrix(-0.7066 0.7076 -0.7076 -0.7066 2470.9124 -674.8503)">
					<stop  offset="0.5952" style="stop-color:#F0CA44;stop-opacity:0.5"/>
					<stop  offset="1" style="stop-color:#FFFFFF;stop-opacity:0.1"/>
				</linearGradient>
				<polygon fill="url(#SVGID_5_)" points="26.042,6.837 10.246,-13.813 -8.031,4.49 12.511,20.389 				"/>
			</g>
		</g>
	</g>
</g>
<g id="Layer_7" display="none">
</g>
<g id="Layer_3" display="none">
</g>
<g id="Layer_11" display="none">
</g>
<g id="Layer_2" display="none">
</g>
<g id="Layer_9">
	
		<path fill="none" stroke="#FFFFFF" stroke-width="0.25" stroke-linecap="round" stroke-linejoin="round" stroke-miterlimit="10" d="
		M44.471,17.631c-1.856-1.856-3.004-4.42-3.004-7.251c0-5.664,4.592-10.255,10.255-10.255h105.155c3.464,0,6.633,1.263,9.07,3.353
		l26.986,26.979c0.829,0.814,1.344,1.949,1.344,3.203c0,1.211-0.479,2.311-1.26,3.119l-16.094,16.04
		c-1.693,1.694-1.67,4.464,0.053,6.187c1.723,1.723,4.492,1.747,6.187,0.053l3.644-3.528c1.694-1.694,4.464-1.67,6.187,0.053
		c1.724,1.723,1.747,4.493,0.053,6.187l-49.197,49.208c-5.053,5.021-12.016,8.125-19.702,8.125h-73.61
		c-7.688,0-14.649-3.103-19.703-8.125L2.441,82.538c-1.436-1.516-2.316-3.562-2.316-5.814V38.645
		c0-5.596,4.537-10.132,10.133-10.132c2.819,0,5.37,1.151,7.207,3.01l20.272,20.271c0.614,0.601,0.994,1.439,0.994,2.367
		c0,0.95-0.399,1.807-1.04,2.411l-2.652,2.673c-1.606,1.618-2.6,3.847-2.6,6.308c0,4.944,4.008,8.952,8.953,8.952
		c2.434,0,4.641-0.971,6.255-2.548l8.893-8.882c0.921-0.925,2.196-1.498,3.604-1.498c1.521,0,2.885,0.667,3.817,1.726l16.746,16.712
		c1.681,1.72,4.026,2.788,6.621,2.788c5.111,0,9.254-4.143,9.254-9.254c0-2.555-1.036-4.869-2.71-6.543L44.471,17.631z"/>
</g>
<g id="Layer_13" display="none">
</g>
<g id="Layer_12" display="none">
</g>
</svg>
